<?xml version="1.0" encoding="UTF-8" standalone="no"?>
<!-- Created with Inkscape (http://www.inkscape.org/) -->

<svg
   xmlns:dc="http://purl.org/dc/elements/1.1/"
   xmlns:cc="http://creativecommons.org/ns#"
   xmlns:rdf="http://www.w3.org/1999/02/22-rdf-syntax-ns#"
   xmlns:svg="http://www.w3.org/2000/svg"
   xmlns="http://www.w3.org/2000/svg"
   xmlns:sodipodi="http://sodipodi.sourceforge.net/DTD/sodipodi-0.dtd"
   xmlns:inkscape="http://www.inkscape.org/namespaces/inkscape"
   width="210mm"
   height="297mm"
   viewBox="0 0 744.09448819 1052.3622047"
   id="svg4977"
   version="1.1"
   inkscape:version="0.91 r"
   sodipodi:docname="Quantum_Pot.svg"
   inkscape:export-filename="/home/matt/Desktop/Classes/3610/Lecture_Notes/figures/Quantum_Pot.png"
   inkscape:export-xdpi="90"
   inkscape:export-ydpi="90">
  <defs
     id="defs4979">
    <marker
       inkscape:isstock="true"
       style="overflow:visible;"
       id="marker5531"
       refX="0.0"
       refY="0.0"
       orient="auto"
       inkscape:stockid="Arrow2Mend">
      <path
         transform="scale(0.6) rotate(180) translate(0,0)"
         d="M 8.7185878,4.0337352 L -2.2072895,0.016013256 L 8.7185884,-4.0017078 C 6.9730900,-1.6296469 6.9831476,1.6157441 8.7185878,4.0337352 z "
         style="fill-rule:evenodd;stroke-width:0.625;stroke-linejoin:round;stroke:#000000;stroke-opacity:1;fill:#000000;fill-opacity:1"
         id="path5533" />
    </marker>
    <marker
       inkscape:stockid="Arrow2Mend"
       orient="auto"
       refY="0.0"
       refX="0.0"
       id="marker5107"
       style="overflow:visible;"
       inkscape:isstock="true"
       inkscape:collect="always">
      <path
         id="path5109"
         style="fill-rule:evenodd;stroke-width:0.625;stroke-linejoin:round;stroke:#000000;stroke-opacity:1;fill:#000000;fill-opacity:1"
         d="M 8.7185878,4.0337352 L -2.2072895,0.016013256 L 8.7185884,-4.0017078 C 6.9730900,-1.6296469 6.9831476,1.6157441 8.7185878,4.0337352 z "
         transform="scale(0.6) rotate(180) translate(0,0)" />
    </marker>
    <marker
       inkscape:isstock="true"
       style="overflow:visible;"
       id="marker4563"
       refX="0.0"
       refY="0.0"
       orient="auto"
       inkscape:stockid="Arrow2Mend"
       inkscape:collect="always">
      <path
         transform="scale(0.6) rotate(180) translate(0,0)"
         d="M 8.7185878,4.0337352 L -2.2072895,0.016013256 L 8.7185884,-4.0017078 C 6.9730900,-1.6296469 6.9831476,1.6157441 8.7185878,4.0337352 z "
         style="fill-rule:evenodd;stroke-width:0.625;stroke-linejoin:round;stroke:#000000;stroke-opacity:1;fill:#000000;fill-opacity:1"
         id="path4565" />
    </marker>
    <marker
       inkscape:stockid="Arrow2Mend"
       orient="auto"
       refY="0.0"
       refX="0.0"
       id="Arrow2Mend"
       style="overflow:visible;"
       inkscape:isstock="true"
       inkscape:collect="always">
      <path
         id="path4190"
         style="fill-rule:evenodd;stroke-width:0.625;stroke-linejoin:round;stroke:#000000;stroke-opacity:1;fill:#000000;fill-opacity:1"
         d="M 8.7185878,4.0337352 L -2.2072895,0.016013256 L 8.7185884,-4.0017078 C 6.9730900,-1.6296469 6.9831476,1.6157441 8.7185878,4.0337352 z "
         transform="scale(0.6) rotate(180) translate(0,0)" />
    </marker>
    <marker
       inkscape:stockid="Arrow2Mend"
       orient="auto"
       refY="0"
       refX="0"
       id="Arrow2Mend-6"
       style="overflow:visible"
       inkscape:isstock="true">
      <path
         inkscape:connector-curvature="0"
         id="path4190-8"
         style="fill:#000000;fill-opacity:1;fill-rule:evenodd;stroke:#000000;stroke-width:0.625;stroke-linejoin:round;stroke-opacity:1"
         d="M 8.7185878,4.0337352 -2.2072895,0.01601326 8.7185884,-4.0017078 c -1.7454984,2.3720609 -1.7354408,5.6174519 -6e-7,8.035443 z"
         transform="scale(-0.6,-0.6)" />
    </marker>
    <marker
       inkscape:stockid="Arrow2Mend"
       orient="auto"
       refY="0"
       refX="0"
       id="Arrow2Mend-61"
       style="overflow:visible"
       inkscape:isstock="true">
      <path
         inkscape:connector-curvature="0"
         id="path4190-9"
         style="fill:#000000;fill-opacity:1;fill-rule:evenodd;stroke:#000000;stroke-width:0.625;stroke-linejoin:round;stroke-opacity:1"
         d="M 8.7185878,4.0337352 -2.2072895,0.01601326 8.7185884,-4.0017078 c -1.7454984,2.3720609 -1.7354408,5.6174519 -6e-7,8.035443 z"
         transform="scale(-0.6,-0.6)" />
    </marker>
    <marker
       inkscape:isstock="true"
       style="overflow:visible"
       id="marker4563-9"
       refX="0"
       refY="0"
       orient="auto"
       inkscape:stockid="Arrow2Mend">
      <path
         inkscape:connector-curvature="0"
         transform="scale(-0.6,-0.6)"
         d="M 8.7185878,4.0337352 -2.2072895,0.01601326 8.7185884,-4.0017078 c -1.7454984,2.3720609 -1.7354408,5.6174519 -6e-7,8.035443 z"
         style="fill:#000000;fill-opacity:1;fill-rule:evenodd;stroke:#000000;stroke-width:0.625;stroke-linejoin:round;stroke-opacity:1"
         id="path4565-4" />
    </marker>
    <marker
       inkscape:stockid="Arrow2Mend"
       orient="auto"
       refY="0"
       refX="0"
       id="marker5107-4"
       style="overflow:visible"
       inkscape:isstock="true">
      <path
         inkscape:connector-curvature="0"
         id="path5109-9"
         style="fill:#000000;fill-opacity:1;fill-rule:evenodd;stroke:#000000;stroke-width:0.625;stroke-linejoin:round;stroke-opacity:1"
         d="M 8.7185878,4.0337352 -2.2072895,0.01601326 8.7185884,-4.0017078 c -1.7454984,2.3720609 -1.7354408,5.6174519 -6e-7,8.035443 z"
         transform="scale(-0.6,-0.6)" />
    </marker>
  </defs>
  <sodipodi:namedview
     id="base"
     pagecolor="#ffffff"
     bordercolor="#666666"
     borderopacity="1.0"
     inkscape:pageopacity="0.0"
     inkscape:pageshadow="2"
     inkscape:zoom="0.99514307"
     inkscape:cx="253.81605"
     inkscape:cy="631.08754"
     inkscape:document-units="px"
     inkscape:current-layer="layer1"
     showgrid="false"
     inkscape:window-width="1366"
     inkscape:window-height="716"
     inkscape:window-x="0"
     inkscape:window-y="0"
     inkscape:window-maximized="1" />
  <metadata
     id="metadata4982">
    <rdf:RDF>
      <cc:Work
         rdf:about="">
        <dc:format>image/svg+xml</dc:format>
        <dc:type
           rdf:resource="http://purl.org/dc/dcmitype/StillImage" />
        <dc:title />
      </cc:Work>
    </rdf:RDF>
  </metadata>
  <g
     inkscape:label="Layer 1"
     inkscape:groupmode="layer"
     id="layer1">
    <circle
       style="opacity:1;fill:none;stroke:#000000;stroke-width:1.90982246;stroke-miterlimit:4;stroke-dasharray:none;stroke-dashoffset:0"
       id="path4133"
       cx="39.862091"
       cy="461.7236"
       r="52.926891" />
    <text
       xml:space="preserve"
       style="font-style:normal;font-weight:normal;font-size:38.19645309px;line-height:125%;font-family:Sans;letter-spacing:0px;word-spacing:0px;fill:#000000;fill-opacity:1;stroke:none;stroke-width:1px;stroke-linecap:butt;stroke-linejoin:miter;stroke-opacity:1"
       x="-54.648445"
       y="519.13586"
       id="text4135"
       sodipodi:linespacing="125%"><tspan
         sodipodi:role="line"
         id="tspan4137"
         x="-54.648445"
         y="519.13586"
         style="font-size:28.64733696px">Low</tspan></text>
    <text
       xml:space="preserve"
       style="font-style:normal;font-weight:normal;font-size:38.19645309px;line-height:125%;font-family:Sans;letter-spacing:0px;word-spacing:0px;fill:#000000;fill-opacity:1;stroke:none;stroke-width:1px;stroke-linecap:butt;stroke-linejoin:miter;stroke-opacity:1"
       x="76.929337"
       y="520.01709"
       id="text4135-1"
       sodipodi:linespacing="125%"><tspan
         sodipodi:role="line"
         id="tspan4137-5"
         x="76.929337"
         y="520.01709"
         style="font-size:28.64733696px">High</tspan></text>
    <path
       style="fill:none;fill-rule:evenodd;stroke:#000000;stroke-width:3;stroke-linecap:butt;stroke-linejoin:miter;stroke-miterlimit:4;stroke-dasharray:none;stroke-opacity:1;marker-end:url(#Arrow2Mend)"
       d="M 38.965028,459.92947 7.5677191,495.81211"
       id="path4157"
       inkscape:connector-curvature="0" />
    <path
       sodipodi:type="spiral"
       style="fill:none;fill-rule:evenodd;stroke:#000000;stroke-width:12.30718689;stroke-linecap:butt;stroke-linejoin:miter;stroke-miterlimit:4;stroke-dasharray:none;stroke-opacity:1"
       id="path4439"
       sodipodi:cx="89.245224"
       sodipodi:cy="292.36868"
       sodipodi:expansion="1"
       sodipodi:revolution="3.0991333"
       sodipodi:radius="84.408226"
       sodipodi:argument="-18.69953"
       sodipodi:t0="0"
       d="m 89.245224,292.36868 c 4.050703,0.61232 1.173089,5.76236 -1.017704,6.73254 -5.936912,2.62911 -11.575486,-3.30075 -12.447364,-8.76795 -1.559585,-9.77952 7.335695,-17.61907 16.51818,-18.16219 13.475664,-0.79705 23.776604,11.40182 23.877024,24.26842 0.13385,17.14915 -15.47593,29.97875 -32.018656,29.59185 -20.81733,-0.48687 -36.203205,-19.55309 -35.306685,-39.76889 1.085807,-24.48405 23.631817,-42.44042 47.519133,-41.02152 28.150378,1.67213 48.685618,27.7115 46.736348,55.26937 -2.25051,31.81666 -31.79181,54.93615 -63.019611,52.45118 -35.483009,-2.82359 -61.190416,-35.87258 -58.166006,-70.76985 3.392931,-39.14945 39.953687,-67.4474 78.520087,-63.88083 42.81601,3.95956 73.70642,44.03505 69.59566,86.27032 -1.67825,17.24289 -8.92722,33.7251 -20.36343,46.72251"
       transform="matrix(0.95805423,0,0,0.24808175,-52.149858,287.45906)" />
    <path
       style="fill:#00ffff;fill-rule:evenodd;stroke:#333333;stroke-width:4;stroke-linecap:butt;stroke-linejoin:miter;stroke-miterlimit:4;stroke-dasharray:none;stroke-opacity:1"
       d="m -18.447193,292.57787 17.61728443,65.7486 74.78051257,0 17.518799,-65.38107 69.496597,0"
       id="path4441"
       inkscape:connector-curvature="0" />
    <circle
       style="opacity:1;fill:none;stroke:#000000;stroke-width:1.90982246;stroke-miterlimit:4;stroke-dasharray:none;stroke-dashoffset:0"
       id="path4133-1"
       cx="297.8598"
       cy="461.72357"
       r="52.926891" />
    <text
       xml:space="preserve"
       style="font-style:normal;font-weight:normal;font-size:38.19645309px;line-height:125%;font-family:Sans;letter-spacing:0px;word-spacing:0px;fill:#000000;fill-opacity:1;stroke:none;stroke-width:1px;stroke-linecap:butt;stroke-linejoin:miter;stroke-opacity:1"
       x="203.34927"
       y="519.13586"
       id="text4135-5"
       sodipodi:linespacing="125%"><tspan
         sodipodi:role="line"
         id="tspan4137-4"
         x="203.34927"
         y="519.13586"
         style="font-size:28.64733696px">Low</tspan></text>
    <text
       xml:space="preserve"
       style="font-style:normal;font-weight:normal;font-size:38.19645309px;line-height:125%;font-family:Sans;letter-spacing:0px;word-spacing:0px;fill:#000000;fill-opacity:1;stroke:none;stroke-width:1px;stroke-linecap:butt;stroke-linejoin:miter;stroke-opacity:1"
       x="334.92703"
       y="520.01709"
       id="text4135-1-8"
       sodipodi:linespacing="125%"><tspan
         sodipodi:role="line"
         id="tspan4137-5-0"
         x="334.92703"
         y="520.01709"
         style="font-size:28.64733696px">High</tspan></text>
    <path
       style="fill:none;fill-rule:evenodd;stroke:#000000;stroke-width:3;stroke-linecap:butt;stroke-linejoin:miter;stroke-miterlimit:4;stroke-dasharray:none;stroke-opacity:1;marker-end:url(#marker4563)"
       d="M 296.96273,459.92948 258.99138,433.3587"
       id="path4157-3"
       inkscape:connector-curvature="0"
       sodipodi:nodetypes="cc" />
    <path
       sodipodi:type="spiral"
       style="fill:none;fill-rule:evenodd;stroke:#ff6600;stroke-width:12.30718689;stroke-linecap:butt;stroke-linejoin:miter;stroke-miterlimit:4;stroke-dasharray:none;stroke-opacity:1"
       id="path4439-4"
       sodipodi:cx="89.245224"
       sodipodi:cy="292.36868"
       sodipodi:expansion="1"
       sodipodi:revolution="3.0991333"
       sodipodi:radius="84.408226"
       sodipodi:argument="-18.69953"
       sodipodi:t0="0"
       d="m 89.245224,292.36868 c 4.050703,0.61232 1.173089,5.76236 -1.017704,6.73254 -5.936912,2.62911 -11.575486,-3.30075 -12.447364,-8.76795 -1.559585,-9.77952 7.335695,-17.61907 16.51818,-18.16219 13.475664,-0.79705 23.776604,11.40182 23.877024,24.26842 0.13385,17.14915 -15.47593,29.97875 -32.018656,29.59185 -20.81733,-0.48687 -36.203205,-19.55309 -35.306685,-39.76889 1.085807,-24.48405 23.631817,-42.44042 47.519133,-41.02152 28.150378,1.67213 48.685618,27.7115 46.736348,55.26937 -2.25051,31.81666 -31.79181,54.93615 -63.019611,52.45118 -35.483009,-2.82359 -61.190416,-35.87258 -58.166006,-70.76985 3.392931,-39.14945 39.953687,-67.4474 78.520087,-63.88083 42.81601,3.95956 73.70642,44.03505 69.59566,86.27032 -1.67825,17.24289 -8.92722,33.7251 -20.36343,46.72251"
       transform="matrix(0.95805423,0,0,0.24808175,205.84784,287.45907)" />
    <path
       style="fill:#00ffff;fill-rule:evenodd;stroke:#333333;stroke-width:4;stroke-linecap:butt;stroke-linejoin:miter;stroke-miterlimit:4;stroke-dasharray:none;stroke-opacity:1"
       d="m 239.55051,292.57787 17.61729,65.74861 74.7805,0 17.5188,-65.38108 69.4966,0"
       id="path4441-9"
       inkscape:connector-curvature="0" />
    <circle
       style="opacity:1;fill:none;stroke:#000000;stroke-width:1.90982246;stroke-miterlimit:4;stroke-dasharray:none;stroke-dashoffset:0"
       id="path4133-1-1-4"
       cx="813.85522"
       cy="461.6698"
       r="52.926891" />
    <text
       xml:space="preserve"
       style="font-style:normal;font-weight:normal;font-size:38.19645309px;line-height:125%;font-family:Sans;letter-spacing:0px;word-spacing:0px;fill:#000000;fill-opacity:1;stroke:none;stroke-width:1px;stroke-linecap:butt;stroke-linejoin:miter;stroke-opacity:1"
       x="719.34473"
       y="519.08203"
       id="text4135-5-9-4"
       sodipodi:linespacing="125%"><tspan
         sodipodi:role="line"
         id="tspan4137-4-3-8"
         x="719.34473"
         y="519.08203"
         style="font-size:28.64733696px">Low</tspan></text>
    <text
       xml:space="preserve"
       style="font-style:normal;font-weight:normal;font-size:38.19645309px;line-height:125%;font-family:Sans;letter-spacing:0px;word-spacing:0px;fill:#000000;fill-opacity:1;stroke:none;stroke-width:1px;stroke-linecap:butt;stroke-linejoin:miter;stroke-opacity:1"
       x="850.92242"
       y="519.96326"
       id="text4135-1-8-7-4"
       sodipodi:linespacing="125%"><tspan
         sodipodi:role="line"
         id="tspan4137-5-0-9-3"
         x="850.92242"
         y="519.96326"
         style="font-size:28.64733696px">High</tspan></text>
    <path
       style="fill:none;fill-rule:evenodd;stroke:#000000;stroke-width:3;stroke-linecap:butt;stroke-linejoin:miter;stroke-miterlimit:4;stroke-dasharray:none;stroke-opacity:1;marker-end:url(#marker5531)"
       d="m 812.95814,459.87569 42.01285,26.02157"
       id="path4157-3-6-6"
       inkscape:connector-curvature="0"
       sodipodi:nodetypes="cc" />
    <path
       sodipodi:type="spiral"
       style="fill:none;fill-rule:evenodd;stroke:#ff0000;stroke-width:14.35838471;stroke-linecap:butt;stroke-linejoin:miter;stroke-miterlimit:4;stroke-dasharray:none;stroke-opacity:1"
       id="path4439-4-0-1"
       sodipodi:cx="89.245224"
       sodipodi:cy="292.36868"
       sodipodi:expansion="1"
       sodipodi:revolution="3.0991333"
       sodipodi:radius="84.408226"
       sodipodi:argument="-18.69953"
       sodipodi:t0="0"
       d="m 89.245224,292.36868 c 4.050703,0.61232 1.173089,5.76236 -1.017704,6.73254 -5.936912,2.62911 -11.575486,-3.30075 -12.447364,-8.76795 -1.559585,-9.77952 7.335695,-17.61907 16.51818,-18.16219 13.475664,-0.79705 23.776604,11.40182 23.877024,24.26842 0.13385,17.14915 -15.47593,29.97875 -32.018656,29.59185 -20.81733,-0.48687 -36.203205,-19.55309 -35.306685,-39.76889 1.085807,-24.48405 23.631817,-42.44042 47.519133,-41.02152 28.150378,1.67213 48.685618,27.7115 46.736348,55.26937 -2.25051,31.81666 -31.79181,54.93615 -63.019611,52.45118 -35.483009,-2.82359 -61.190416,-35.87258 -58.166006,-70.76985 3.392931,-39.14945 39.953687,-67.4474 78.520087,-63.88083 42.81601,3.95956 73.70642,44.03505 69.59566,86.27032 -1.67825,17.24289 -8.92722,33.7251 -20.36343,46.72251"
       transform="matrix(0.95805423,0,0,0.24808175,721.84325,287.40527)" />
    <path
       style="fill:#00ffff;fill-rule:evenodd;stroke:#333333;stroke-width:4;stroke-linecap:butt;stroke-linejoin:miter;stroke-miterlimit:4;stroke-dasharray:none;stroke-opacity:1"
       d="m 755.54592,292.52408 17.61728,65.7486 74.78056,0 17.51879,-65.38107 69.49659,0"
       id="path4441-9-4-2"
       inkscape:connector-curvature="0" />
    <circle
       style="opacity:1;fill:none;stroke:#000000;stroke-width:1.90982246;stroke-miterlimit:4;stroke-dasharray:none;stroke-dashoffset:0"
       id="path4133-1-1"
       cx="555.85754"
       cy="461.72357"
       r="52.926891" />
    <text
       xml:space="preserve"
       style="font-style:normal;font-weight:normal;font-size:38.19645309px;line-height:125%;font-family:Sans;letter-spacing:0px;word-spacing:0px;fill:#000000;fill-opacity:1;stroke:none;stroke-width:1px;stroke-linecap:butt;stroke-linejoin:miter;stroke-opacity:1"
       x="461.34702"
       y="519.13586"
       id="text4135-5-9"
       sodipodi:linespacing="125%"><tspan
         sodipodi:role="line"
         id="tspan4137-4-3"
         x="461.34702"
         y="519.13586"
         style="font-size:28.64733696px">Low</tspan></text>
    <text
       xml:space="preserve"
       style="font-style:normal;font-weight:normal;font-size:38.19645309px;line-height:125%;font-family:Sans;letter-spacing:0px;word-spacing:0px;fill:#000000;fill-opacity:1;stroke:none;stroke-width:1px;stroke-linecap:butt;stroke-linejoin:miter;stroke-opacity:1"
       x="592.92474"
       y="520.01709"
       id="text4135-1-8-7"
       sodipodi:linespacing="125%"><tspan
         sodipodi:role="line"
         id="tspan4137-5-0-9"
         x="592.92474"
         y="520.01709"
         style="font-size:28.64733696px">High</tspan></text>
    <path
       style="fill:none;fill-rule:evenodd;stroke:#000000;stroke-width:3;stroke-linecap:butt;stroke-linejoin:miter;stroke-miterlimit:4;stroke-dasharray:none;stroke-opacity:1;marker-end:url(#marker5107)"
       d="m 554.96046,459.92948 32.15178,-33.14482"
       id="path4157-3-6"
       inkscape:connector-curvature="0"
       sodipodi:nodetypes="cc" />
    <path
       sodipodi:type="spiral"
       style="fill:none;fill-rule:evenodd;stroke:#ff2a2a;stroke-width:12.30718689;stroke-linecap:butt;stroke-linejoin:miter;stroke-miterlimit:4;stroke-dasharray:none;stroke-opacity:1"
       id="path4439-4-0"
       sodipodi:cx="89.245224"
       sodipodi:cy="292.36868"
       sodipodi:expansion="1"
       sodipodi:revolution="3.0991333"
       sodipodi:radius="84.408226"
       sodipodi:argument="-18.69953"
       sodipodi:t0="0"
       d="m 89.245224,292.36868 c 4.050703,0.61232 1.173089,5.76236 -1.017704,6.73254 -5.936912,2.62911 -11.575486,-3.30075 -12.447364,-8.76795 -1.559585,-9.77952 7.335695,-17.61907 16.51818,-18.16219 13.475664,-0.79705 23.776604,11.40182 23.877024,24.26842 0.13385,17.14915 -15.47593,29.97875 -32.018656,29.59185 -20.81733,-0.48687 -36.203205,-19.55309 -35.306685,-39.76889 1.085807,-24.48405 23.631817,-42.44042 47.519133,-41.02152 28.150378,1.67213 48.685618,27.7115 46.736348,55.26937 -2.25051,31.81666 -31.79181,54.93615 -63.019611,52.45118 -35.483009,-2.82359 -61.190416,-35.87258 -58.166006,-70.76985 3.392931,-39.14945 39.953687,-67.4474 78.520087,-63.88083 42.81601,3.95956 73.70642,44.03505 69.59566,86.27032 -1.67825,17.24289 -8.92722,33.7251 -20.36343,46.72251"
       transform="matrix(0.95805423,0,0,0.24808175,463.84556,287.45907)" />
    <path
       style="fill:#ffaaaa;fill-rule:evenodd;stroke:#333333;stroke-width:4;stroke-linecap:butt;stroke-linejoin:miter;stroke-miterlimit:4;stroke-dasharray:none;stroke-opacity:1"
       d="m 497.54823,292.57788 17.61729,65.7486 74.78051,0 17.5188,-65.38107 69.49659,0"
       id="path4441-9-4"
       inkscape:connector-curvature="0" />
    <circle
       style="opacity:1;fill:#ffffff;stroke:none;stroke-width:2;stroke-miterlimit:4;stroke-dasharray:none;stroke-dashoffset:0"
       id="path5829"
       cx="530.21259"
       cy="337.49219"
       r="2.9675355" />
    <circle
       style="opacity:1;fill:#ffffff;stroke:none;stroke-width:2;stroke-miterlimit:4;stroke-dasharray:none;stroke-dashoffset:0"
       id="path5831"
       cx="548.9209"
       cy="331.94418"
       r="3.6126521" />
    <circle
       style="opacity:1;fill:#ffffff;stroke:none;stroke-width:2;stroke-miterlimit:4;stroke-dasharray:none;stroke-dashoffset:0"
       id="path5833"
       cx="528.14825"
       cy="315.30017"
       r="2.7094889" />
    <circle
       style="opacity:1;fill:#ffffff;stroke:none;stroke-width:2;stroke-miterlimit:4;stroke-dasharray:none;stroke-dashoffset:0"
       id="path5835"
       cx="546.21149"
       cy="307.81683"
       r="2.1933959" />
    <circle
       style="opacity:1;fill:#ffffff;stroke:none;stroke-width:2;stroke-miterlimit:4;stroke-dasharray:none;stroke-dashoffset:0"
       id="path5837"
       cx="571.75806"
       cy="303.68808"
       r="2.1933959" />
    <circle
       style="opacity:1;fill:#ffffff;stroke:none;stroke-width:2;stroke-miterlimit:4;stroke-dasharray:none;stroke-dashoffset:0"
       id="path5839"
       cx="571.50006"
       cy="315.30017"
       r="2.4514422" />
    <circle
       style="opacity:1;fill:#ffffff;stroke:none;stroke-width:2;stroke-miterlimit:4;stroke-dasharray:none;stroke-dashoffset:0"
       id="path5841"
       cx="572.27411"
       cy="334.65366"
       r="2.4514422" />
    <circle
       style="opacity:1;fill:#ffffff;stroke:none;stroke-width:2;stroke-miterlimit:4;stroke-dasharray:none;stroke-dashoffset:0"
       id="path5843"
       cx="549.5661"
       cy="351.16864"
       r="2.7094889" />
    <circle
       style="opacity:1;fill:#ffffff;stroke:none;stroke-width:2;stroke-miterlimit:4;stroke-dasharray:none;stroke-dashoffset:0"
       id="path5845"
       cx="528.01917"
       cy="351.81378"
       r="2.5804658" />
    <circle
       style="opacity:1;fill:#ffffff;stroke:none;stroke-width:2;stroke-miterlimit:4;stroke-dasharray:none;stroke-dashoffset:0"
       id="path5847"
       cx="574.20947"
       cy="353.36206"
       r="2.5804658" />
    <circle
       style="opacity:1;fill:#ffffff;stroke:none;stroke-width:2;stroke-miterlimit:4;stroke-dasharray:none;stroke-dashoffset:0"
       id="path5849"
       cx="528.53528"
       cy="299.17227"
       r="2.5804658" />
    <circle
       style="opacity:1;fill:#ffffff;stroke:none;stroke-width:2;stroke-miterlimit:4;stroke-dasharray:none;stroke-dashoffset:0"
       id="path5835-2"
       cx="549.64722"
       cy="320.56912"
       r="2.1933959" />
    <circle
       style="opacity:1;fill:#ffffff;stroke:none;stroke-width:2;stroke-miterlimit:4;stroke-dasharray:none;stroke-dashoffset:0"
       id="path5835-5"
       cx="549.64722"
       cy="298.90421"
       r="2.1933959" />
    <circle
       style="opacity:1;fill:#ffffff;stroke:none;stroke-width:2;stroke-miterlimit:4;stroke-dasharray:none;stroke-dashoffset:0"
       id="path5835-2-2"
       cx="528.78467"
       cy="327.79077"
       r="2.1933959" />
  </g>
</svg>
