<?xml version="1.0" encoding="UTF-8" standalone="no"?>
<!-- Created with Inkscape (http://www.inkscape.org/) -->

<svg
   xmlns:dc="http://purl.org/dc/elements/1.1/"
   xmlns:cc="http://creativecommons.org/ns#"
   xmlns:rdf="http://www.w3.org/1999/02/22-rdf-syntax-ns#"
   xmlns:svg="http://www.w3.org/2000/svg"
   xmlns="http://www.w3.org/2000/svg"
   xmlns:sodipodi="http://sodipodi.sourceforge.net/DTD/sodipodi-0.dtd"
   xmlns:inkscape="http://www.inkscape.org/namespaces/inkscape"
   width="210mm"
   height="297mm"
   viewBox="0 0 744.09448819 1052.3622047"
   id="svg2"
   version="1.1"
   inkscape:version="0.91 r"
   sodipodi:docname="Quantum_BBall.svg"
   inkscape:export-filename="/home/matt/Desktop/Classes/3610/Lecture_Notes/figures/Quantum_BBall.png"
   inkscape:export-xdpi="90"
   inkscape:export-ydpi="90">
  <defs
     id="defs4" />
  <sodipodi:namedview
     id="base"
     pagecolor="#ffffff"
     bordercolor="#666666"
     borderopacity="1.0"
     inkscape:pageopacity="0.0"
     inkscape:pageshadow="2"
     inkscape:zoom="1.0393939"
     inkscape:cx="440.6224"
     inkscape:cy="933.05376"
     inkscape:document-units="px"
     inkscape:current-layer="layer1"
     showgrid="false"
     inkscape:window-width="1366"
     inkscape:window-height="716"
     inkscape:window-x="0"
     inkscape:window-y="0"
     inkscape:window-maximized="1" />
  <metadata
     id="metadata7">
    <rdf:RDF>
      <cc:Work
         rdf:about="">
        <dc:format>image/svg+xml</dc:format>
        <dc:type
           rdf:resource="http://purl.org/dc/dcmitype/StillImage" />
        <dc:title />
      </cc:Work>
    </rdf:RDF>
  </metadata>
  <g
     inkscape:label="Layer 1"
     inkscape:groupmode="layer"
     id="layer1">
    <g
       id="g4203"
       transform="matrix(1.3617592,0,0,1.3617592,-10.048596,-175.01892)">
      <path
         inkscape:connector-curvature="0"
         id="path4160"
         d="M 52.915452,56.58961 619.59184,198.98029"
         style="fill:none;fill-rule:evenodd;stroke:#000000;stroke-width:2;stroke-linecap:butt;stroke-linejoin:miter;stroke-miterlimit:4;stroke-dasharray:4, 2;stroke-dashoffset:0;stroke-opacity:1" />
      <path
         sodipodi:nodetypes="ccccccccccc"
         inkscape:connector-curvature="0"
         id="path4138"
         d="m 618.62974,202.82868 c -22.99768,-12.65007 -40.36161,-18.83334 -55.80175,0 -13.84854,-29.89289 -34.2858,-38.16835 -55.80174,0.9621 -25.96106,-70.30366 -36.00184,-32.59584 -51.95336,-0.9621 -28.28431,-102.70211 -34.72565,-18.53421 -49.06705,0 -24.52339,-117.509973 -43.931,-51.28355 -58.68805,0 -34.9771,-142.299439 -46.11109,-70.53522 -63.49854,0 -46.95177,-179.998641 -58.36137,-71.39508 -76.00583,0 -32.47843,-193.0207678 -48.65759,-109.886159 -63.49855,0 -20.52478,-174.460679 -41.04957,-174.460613 -61.574345,0 -24.564303,-247.691976 -39.355374,-128.887767 -53.877551,0"
         style="fill:none;fill-rule:evenodd;stroke:#000000;stroke-width:3;stroke-linecap:butt;stroke-linejoin:miter;stroke-miterlimit:4;stroke-dasharray:none;stroke-opacity:1" />
      <circle
         r="25.014578"
         cy="176.63454"
         cx="619.5918"
         id="path4136"
         style="opacity:1;fill:#ff6600;stroke:#d45500;stroke-width:2;stroke-miterlimit:4;stroke-dasharray:none;stroke-dashoffset:0" />
      <rect
         y="203.64912"
         x="22.128281"
         height="26.938776"
         width="630.17493"
         id="rect4180"
         style="opacity:1;fill:#803300;stroke:#803300;stroke-width:2;stroke-miterlimit:4;stroke-dasharray:none;stroke-dashoffset:0" />
    </g>
    <g
       id="g4197"
       transform="matrix(1.3617592,0,0,1.3617592,-6.7732294,-175.01892)">
      <path
         inkscape:connector-curvature="0"
         id="path4162"
         d="m 50.991254,307.69749 256.880466,0 0,98.13411 226.0933,0 0,34.63556 73.11953,0"
         style="fill:none;fill-rule:evenodd;stroke:#000000;stroke-width:2;stroke-linecap:butt;stroke-linejoin:miter;stroke-miterlimit:4;stroke-dasharray:4, 2;stroke-dashoffset:0;stroke-opacity:1" />
      <path
         sodipodi:nodetypes="ccccccccccc"
         inkscape:connector-curvature="0"
         id="path4138-6"
         d="m 618.12976,454.89865 c -18.60058,-9.16221 -37.20117,-22.88588 -55.80175,0 -27.46745,-23.38063 -37.23375,-8.40879 -50.02915,0 -20.13853,-80.18044 -40.49035,-36.68251 -57.72595,0 -19.45302,-86.57623 -34.7816,-34.0637 -49.06705,0 -26.95441,-87.53434 -43.55179,-34.80699 -58.68805,-1.9242 -27.90619,-75.53146 -43.23841,-44.47095 -63.49854,1.9242 -33.98181,-210.42577 -57.33515,-175.53642 -76.00583,0 -39.02568,-267.89251 -48.99435,-99.9297 -63.49855,0 -29.3536,-222.19203 -47.537977,-163.29174 -61.574343,0 -23.938384,-225.71483 -40.136284,-159.22636 -53.87755,0"
         style="fill:none;fill-rule:evenodd;stroke:#000000;stroke-width:3;stroke-linecap:butt;stroke-linejoin:miter;stroke-miterlimit:4;stroke-dasharray:none;stroke-opacity:1" />
      <circle
         r="25.014578"
         cy="430.16046"
         cx="619.0918"
         id="path4136-3"
         style="opacity:1;fill:#ff6600;stroke:#d45500;stroke-width:2;stroke-miterlimit:4;stroke-dasharray:none;stroke-dashoffset:0" />
      <rect
         y="455.86075"
         x="19.723034"
         height="26.938776"
         width="630.17493"
         id="rect4180-2"
         style="opacity:1;fill:#803300;stroke:#803300;stroke-width:2;stroke-miterlimit:4;stroke-dasharray:none;stroke-dashoffset:0" />
    </g>
  </g>
</svg>
